<?xml version="1.0" encoding="utf-8"?>
<!-- Generator: Adobe Illustrator 28.1.0, SVG Export Plug-In . SVG Version: 6.00 Build 0)  -->
<svg version="1.2" baseProfile="tiny" id="Layer_1" xmlns="http://www.w3.org/2000/svg" xmlns:xlink="http://www.w3.org/1999/xlink"
	 x="0px" y="0px" viewBox="0 0 85 35" overflow="visible" xml:space="preserve">
<g>
	<path fill-rule="evenodd" d="M53.53,21.67c0,0.55,0.68,0.96,1.73,0.96c1.04,0,1.73-0.41,1.73-0.96c0-0.55-0.68-0.96-1.73-0.96
		C54.22,20.71,53.53,21.13,53.53,21.67z M56.27,21.67c0,0.27-0.34,0.48-1.01,0.48c-0.67,0-1.01-0.22-1.01-0.48
		c0-0.27,0.34-0.49,1.01-0.49C55.93,21.18,56.27,21.4,56.27,21.67z"/>
	<polygon fill-rule="evenodd" points="60.26,21.18 60.26,20.79 57.33,20.79 57.33,22.57 57.97,22.57 57.97,21.93 59.36,21.93 
		59.36,21.56 57.97,21.56 57.97,21.18 	"/>
	<polygon fill-rule="evenodd" points="63.58,22.57 63.58,21.27 64.88,21.27 64.88,20.79 61.64,20.79 61.64,21.27 62.93,21.27 
		62.93,22.57 	"/>
	<polygon fill-rule="evenodd" points="65.8,21.87 67.67,21.87 67.67,22.57 68.31,22.57 68.31,20.79 67.67,20.79 67.67,21.39 
		65.8,21.39 65.8,20.79 65.15,20.79 65.15,22.57 65.8,22.57 	"/>
	<polygon fill-rule="evenodd" points="71.68,22.18 69.33,22.18 69.33,21.83 70.72,21.83 70.72,21.49 69.33,21.49 69.33,21.19 
		71.68,21.19 71.68,20.79 68.68,20.79 68.68,22.57 71.68,22.57 	"/>
	<rect x="15.66" y="18.7" fill-rule="evenodd" width="1.5" height="4.12"/>
	<path fill-rule="evenodd" d="M19.96,21.52h1.62l2.19,1.3h2.26l-2.56-1.37c1.6,0,2.24-0.64,2.24-1.32c0-0.92-1.16-1.43-2.37-1.43
		h-4.87v4.12h1.5V21.52z M19.96,19.64h3.07c0.66,0,0.99,0.21,0.99,0.48c0,0.27-0.33,0.48-1,0.48h-3.06V19.64z"/>
	<path fill-rule="evenodd" d="M34.82,18.7v2.24c0,1.34,1.65,2.02,3.71,2.02s3.71-0.68,3.71-2.02V18.7h-1.49v1.99
		c0,0.75-0.88,1.13-2.2,1.13c-1.32,0-2.2-0.38-2.2-1.13V18.7H34.82z"/>
	<rect x="43.51" y="18.7" fill-rule="evenodd" width="1.5" height="4.12"/>
	<polygon fill-rule="evenodd" points="53.31,18.7 45.82,18.7 45.82,19.8 48.81,19.8 48.81,22.82 50.31,22.82 50.31,19.8 53.31,19.8 
			"/>
	<path fill-rule="evenodd" d="M32.99,21.29c-1.24,0.83-4.7,0.79-4.7-0.55c0-1.34,3.39-1.38,4.63-0.55l0.84-0.95
		c-2.32-1.26-7.14-0.91-7.14,1.5c0,2.41,4.88,2.76,7.2,1.5L32.99,21.29z"/>
	<path fill-rule="evenodd" d="M13.86,21.29c-1.24,0.83-4.7,0.79-4.7-0.55c0-1.34,3.39-1.38,4.63-0.55l0.84-0.95
		c-2.32-1.26-7.14-0.91-7.14,1.5c0,2.41,4.88,2.76,7.2,1.5L13.86,21.29z"/>
	<path fill-rule="evenodd" d="M15.56,23.95l-3.27,4.13h1.79l0.74-0.94h3.63l0.74,0.94h1.87l-3.27-4.13H15.56z M15.41,26.32
		l1.05-1.37h0.37l1.03,1.37H15.41z"/>
	<polygon fill-rule="evenodd" points="25.97,26.65 23.64,23.96 21.41,23.96 21.41,28.09 22.89,28.09 22.89,25.11 25.47,28.09 
		26.32,28.09 28.95,25.11 28.95,28.09 30.44,28.09 30.44,23.96 28.28,23.96 	"/>
	<polygon fill-rule="evenodd" points="31.75,28.09 38.68,28.09 38.68,27.18 33.25,27.18 33.25,26.37 36.47,26.37 36.47,25.58 
		33.25,25.58 33.25,24.89 38.68,24.89 38.68,23.96 31.75,23.96 	"/>
	<path fill-rule="evenodd" d="M46.95,25.4c0-0.92-1.16-1.43-2.37-1.43h-4.87v4.12h1.49v-1.3h1.62l2.19,1.3h2.26l-2.56-1.37
		C46.32,26.72,46.95,26.08,46.95,25.4z M41.21,25.86v-0.95h3.07c0.66,0,0.99,0.21,0.99,0.48c0,0.27-0.33,0.48-1,0.48H41.21z"/>
	<rect x="48.14" y="23.96" fill-rule="evenodd" width="1.5" height="4.12"/>
	<path fill-rule="evenodd" d="M61.2,23.95l-3.27,4.13h1.79l0.74-0.94h3.64l0.74,0.94h1.87l-3.27-4.13H61.2z M61.04,26.32l1.05-1.37
		h0.37l1.03,1.37H61.04z"/>
	<path fill-rule="evenodd" d="M70.57,25.43c-1.38-0.01-1.86-0.09-1.86-0.33c0-0.25,0.46-0.4,1.62-0.4c1.28,0,2.43,0.17,3.36,0.66
		l0.51-0.85c-0.96-0.48-2.15-0.73-3.66-0.73c-2.33,0-3.53,0.56-3.53,1.43c0,0.96,1.35,1.26,3.46,1.29c1.66,0.02,2.2,0.09,2.2,0.31
		c0,0.25-0.48,0.47-2,0.47c-1.32,0-2.41-0.17-3.27-0.73l-0.54,0.8c1,0.61,2.15,0.87,3.65,0.87c2.26,0,3.87-0.56,3.87-1.54
		C74.38,25.71,72.92,25.44,70.57,25.43z"/>
	<path fill-rule="evenodd" d="M52.35,26.01c0-1.34,3.39-1.38,4.63-0.55l0.84-0.95c-2.32-1.26-7.14-0.91-7.14,1.5
		c0,2.41,4.88,2.76,7.2,1.5l-0.84-0.95C55.8,27.38,52.35,27.35,52.35,26.01z"/>
	<polygon fill-rule="evenodd" points="74.63,24.79 75.13,24.79 75.13,25.3 75.39,25.3 75.39,24.79 75.89,24.79 75.89,24.61 
		74.63,24.61 	"/>
	<polygon fill-rule="evenodd" points="77.14,24.61 76.75,25.06 76.36,24.61 75.98,24.61 75.98,25.3 76.23,25.3 76.23,24.8 
		76.66,25.3 76.81,25.3 77.25,24.8 77.25,25.3 77.5,25.3 77.5,24.61 	"/>
	<path fill-rule="evenodd" d="M32.36,10.82l-0.93-0.35c-0.44-0.16-0.7-0.28-1.01-0.39c-3.91-1.1-5.77,2.99-9.4,0.89
		C26.99,14.74,30.1,10.62,32.36,10.82z"/>
	<path fill-rule="evenodd" d="M41.39,11.91c-2.15-1.4-4.03-2.6-5.99-2.59c8.25-0.46,15.68,13.38,27.1,4.16
		c-5.05,1.98-10.32-1.91-16.08-4.11C39.19,5.21,27,6.57,25.12,9.87C30.36,6.33,34.43,12.13,41.39,11.91z"/>
	<path fill-rule="evenodd" d="M49.96,16.69c-2.32-0.71-4.65-1.96-6.65-3.29c-3.63,0.72-6.82,0.71-10.37-1.71
		C36.12,15.8,43.06,17.64,49.96,16.69z"/>
</g>
</svg>
